<svg width="37" height="38" viewBox="0 0 37 38" fill="none" xmlns="http://www.w3.org/2000/svg">
<path d="M36.75 2.92578C36.75 1.85938 35.7656 0.875 34.6992 0.875H1.96875C0.902344 0.875 0 1.85938 0 2.92578V35.6562C0 36.7227 0.902344 37.625 1.96875 37.625H19.6055V23.4336H14.7656V17.8555H19.6055V13.7539C19.6055 9.07812 22.4766 6.45312 26.7422 6.45312C28.7109 6.45312 30.5156 6.61719 31.0078 6.69922V11.6211H28.0547C25.7578 11.6211 25.3477 12.7695 25.3477 14.3281V17.8555H30.8438L30.1055 23.4336H25.3477V37.625H34.6992C35.7656 37.625 36.75 36.7227 36.75 35.6562V2.92578Z" fill="white"/>
</svg>
