<svg width="38" height="38" viewBox="0 0 38 38" fill="none" xmlns="http://www.w3.org/2000/svg">
<path d="M19.375 9.81641C14.125 9.81641 9.94141 14.082 9.94141 19.25C9.94141 24.5 14.125 28.6836 19.375 28.6836C24.543 28.6836 28.8086 24.5 28.8086 19.25C28.8086 14.082 24.543 9.81641 19.375 9.81641ZM19.375 25.4023C16.0117 25.4023 13.2227 22.6953 13.2227 19.25C13.2227 15.8867 15.9297 13.1797 19.375 13.1797C22.7383 13.1797 25.4453 15.8867 25.4453 19.25C25.4453 22.6953 22.7383 25.4023 19.375 25.4023ZM31.3516 9.48828C31.3516 8.25781 30.3672 7.27344 29.1367 7.27344C27.9062 7.27344 26.9219 8.25781 26.9219 9.48828C26.9219 10.7188 27.9062 11.7031 29.1367 11.7031C30.3672 11.7031 31.3516 10.7188 31.3516 9.48828ZM37.5859 11.7031C37.4219 8.75 36.7656 6.125 34.6328 3.99219C32.5 1.85938 29.875 1.20312 26.9219 1.03906C23.8867 0.875 14.7812 0.875 11.7461 1.03906C8.79297 1.20312 6.25 1.85938 4.03516 3.99219C1.90234 6.125 1.24609 8.75 1.08203 11.7031C0.917969 14.7383 0.917969 23.8438 1.08203 26.8789C1.24609 29.832 1.90234 32.375 4.03516 34.5898C6.25 36.7227 8.79297 37.3789 11.7461 37.543C14.7812 37.707 23.8867 37.707 26.9219 37.543C29.875 37.3789 32.5 36.7227 34.6328 34.5898C36.7656 32.375 37.4219 29.832 37.5859 26.8789C37.75 23.8438 37.75 14.7383 37.5859 11.7031ZM33.6484 30.0781C33.0742 31.7188 31.7617 32.9492 30.2031 33.6055C27.7422 34.5898 22 34.3438 19.375 34.3438C16.668 34.3438 10.9258 34.5898 8.54688 33.6055C6.90625 32.9492 5.67578 31.7188 5.01953 30.0781C4.03516 27.6992 4.28125 21.957 4.28125 19.25C4.28125 16.625 4.03516 10.8828 5.01953 8.42188C5.67578 6.86328 6.90625 5.63281 8.54688 4.97656C10.9258 3.99219 16.668 4.23828 19.375 4.23828C22 4.23828 27.7422 3.99219 30.2031 4.97656C31.7617 5.55078 32.9922 6.86328 33.6484 8.42188C34.6328 10.8828 34.3867 16.625 34.3867 19.25C34.3867 21.957 34.6328 27.6992 33.6484 30.0781Z" fill="white"/>
</svg>
