<svg width="50" height="50" viewBox="0 0 50 50" fill="none" xmlns="http://www.w3.org/2000/svg">
<rect width="50" height="50" rx="10" fill="#00A2FF"/>
<path d="M21.8962 17.1732V21.6063C20.6008 21.6926 19.5933 21.8941 18.8161 22.2108C18.0676 22.5274 17.4631 23.1031 17.0601 23.8803C16.6283 24.6576 16.4268 25.7802 16.4268 27.2483V28.7164H19.363V32.1131H9V28.7164H11.7059V20.8002H9.14393V17.3459H16.0238V21.0881C16.3692 19.9655 17.0025 19.0155 17.9525 18.2671C18.9024 17.5187 20.0539 17.1444 21.4356 17.1444C21.6371 17.1444 21.8098 17.1444 21.8962 17.1732Z" fill="white"/>
<path d="M40.9758 25.7221H29.9507C30.0659 26.8448 30.4689 27.7371 31.131 28.3992C31.793 29.0613 32.6566 29.4067 33.7217 29.4067C34.9019 29.4067 36.0246 28.831 37.1473 27.6508L40.8031 28.831C39.9971 30.04 39.0183 30.9612 37.8093 31.5657C36.6291 32.1702 35.2186 32.458 33.5778 32.458C31.9658 32.458 30.5264 32.1702 29.2599 31.5369C28.0221 30.9324 27.0433 30.0688 26.3525 28.9462C25.6616 27.8235 25.3162 26.4994 25.3162 24.9737C25.3162 23.4768 25.6904 22.1239 26.3812 20.8861C27.1009 19.6771 28.0796 18.7272 29.3174 18.0363C30.5264 17.3454 31.8506 17 33.2899 17C34.8444 17 36.1973 17.3742 37.3488 18.0651C38.5002 18.7847 39.3926 19.821 40.0259 21.1164C40.6304 22.4405 40.947 23.9662 40.9758 25.7221ZM33.0596 20.1377C32.2248 20.1377 31.534 20.368 31.0446 20.8573C30.5264 21.3467 30.2098 22.0951 30.0659 23.1026H36.2261C36.0822 22.2102 35.7367 21.5194 35.161 20.9725C34.5565 20.4255 33.8656 20.1377 33.0596 20.1377Z" fill="white"/>
</svg>
